<?xml version="1.0" standalone="no"?><!DOCTYPE svg PUBLIC "-//W3C//DTD SVG 1.1//EN" "http://www.w3.org/Graphics/SVG/1.1/DTD/svg11.dtd"><svg t="1628423701106" class="icon" viewBox="0 0 1024 1024" version="1.1" xmlns="http://www.w3.org/2000/svg" p-id="3638" xmlns:xlink="http://www.w3.org/1999/xlink" width="200" height="200"><defs><style type="text/css"></style></defs><path d="M228.170676 360.139314c0 0 57.796334-89.992617 149.251256-138.28039 91.454922-48.28368 204.125027-34.383088 278.018991 12.438287 73.894987 46.825468 98.768491 86.333274 98.768491 86.333274l63.652715-36.583197c0 0 13.167904-6.583952 13.167904 8.779967l0 229.731218c0 0 0 20.485567-15.363919 13.167904-12.924357-6.154163-152.712077-86.35374-196.761316-111.660102-24.189935-10.884908-2.936889-19.727297-2.936889-19.727297l61.421908-35.419697c0 0-35.035958-44.273343-86.311785-67.719334-54.893214-28.857235-106.277512-32.278147-169.228239-8.30106-41.043788 15.636119-89.370447 55.664787-124.172067 114.796536L228.170676 360.139314 228.170676 360.139314zM228.170676 360.139314" p-id="3639" fill="#cdcdcd"></path><path d="M798.837844 663.753239c0 0-57.796334 89.988524-149.251256 138.276297-91.451852 48.287773-204.125027 34.386158-278.014898-12.438287-73.894987-46.822398-98.772584-86.330204-98.772584-86.330204l-63.652715 36.579103c0 0-13.167904 6.583952-13.167904-8.779967L195.978487 501.329986c0 0 0-20.485567 15.363919-13.167904 12.927427 6.154163 152.715147 86.35681 196.765409 111.660102 24.185842 10.889001 2.936889 19.73139 2.936889 19.73139l-61.424978 35.419697c0 0 35.035958 44.273343 86.315878 67.718311 54.889121 28.854165 106.273419 32.275077 169.224146 8.299013 41.043788-15.634072 89.370447-55.661717 124.176161-114.796536L798.837844 663.753239 798.837844 663.753239zM798.837844 663.753239" p-id="3640" fill="#cdcdcd"></path></svg>