<?xml version="1.0" standalone="no"?><!DOCTYPE svg PUBLIC "-//W3C//DTD SVG 1.1//EN" "http://www.w3.org/Graphics/SVG/1.1/DTD/svg11.dtd"><svg t="1621166936008" class="icon" viewBox="0 0 1024 1024" version="1.1" xmlns="http://www.w3.org/2000/svg" p-id="4846" xmlns:xlink="http://www.w3.org/1999/xlink" width="200" height="200"><defs><style type="text/css"></style></defs><path d="M787.772149 814.402537c97.64141-54.240146 162.35457-147.902727 162.35457-254.553673a273.761819 273.761819 0 0 0-69.812465-179.984904 408.653313 408.653313 0 0 0 4.893504-59.93399c0-9.306804-1.029008-18.293473-1.646412-27.57741a341.218999 341.218999 0 0 1 131.484335 263.517474 347.94185 347.94185 0 0 1-162.35457 286.452915v181.448383l-181.928586-110.401108a488.938791 488.938791 0 0 1-77.747259 6.448449c-124.990152 0-204.452424-47.128559-281.719479-121.60586 12.713964 0.731739 25.359327 1.623546 38.301958 1.623546 18.110538 0 35.992407-0.891807 53.691342-2.286684 61.008731 41.366115 105.667672 66.313838 189.794779 66.313839a416.176503 416.176503 0 0 0 83.96704-8.803734l110.766977 72.785154v-113.442397z m-357.019986-78.593332a963.357138 963.357138 0 0 1-109.166298-8.437864l-182.934727 104.409995v-181.425515A361.616221 361.616221 0 0 1 8.813216 363.902905C8.813216 162.926241 197.396052 0 430.752163 0c193.979411 0 389.468033 162.926241 389.468034 363.902905s-156.454925 371.9063-389.468034 371.9063z m-116.437953-72.716554a801.162636 801.162636 0 0 0 116.437953 8.803734c197.180769 0 324.549072-136.057703 324.549072-303.923182S592.146326 63.981421 430.752163 63.981421c-202.760278 0-357.019986 136.08057-357.019986 303.923181a318.603694 318.603694 0 0 0 129.815056 254.553673v113.35093z m294.982247-247.121949a48.020366 48.020366 0 1 1 48.683504-48.020366 48.020366 48.020366 0 0 1-48.683504 48.020366z m-194.734017 0a48.020366 48.020366 0 1 1 48.683504-48.020366 48.020366 48.020366 0 0 1-48.683504 48.020366z m-194.734017 0a48.020366 48.020366 0 1 1 48.683504-48.020366 48.020366 48.020366 0 0 1-48.729237 47.951765z" p-id="4847" fill="#dbdbdb"></path></svg>