<?xml version="1.0" standalone="no"?><!DOCTYPE svg PUBLIC "-//W3C//DTD SVG 1.1//EN" "http://www.w3.org/Graphics/SVG/1.1/DTD/svg11.dtd"><svg t="1625382681575" class="icon" viewBox="0 0 1024 1024" version="1.1" xmlns="http://www.w3.org/2000/svg" p-id="3612" xmlns:xlink="http://www.w3.org/1999/xlink" width="200" height="200"><defs><style type="text/css"></style></defs><path d="M506.913145 776.645402c4.193509 0 8.376785 1.006933 12.170181 3.069919l186.060603 100.159164c11.181667 5.995551 25.578562 5.209652 36.075637-1.956561 10.285251-7.080256 15.480576-18.975167 13.43294-30.971385l-36.283368-216.598106c-1.364067-8.179286 1.305739-16.536628 7.210215-22.445198l156.414399-156.101267c8.559956-8.54563 11.446703-20.821211 7.571443-32.089859-3.932566-11.446703-14.179954-19.755949-26.653033-21.60711l-213.378785-31.737842c-8.429996-1.243317-15.673981-6.583952-19.370163-14.251585l-92.808756-192.557574c-5.446036-11.32186-17.394159-18.62315-30.441313-18.62315-13.042037 0-25.004487 7.302313-30.489408 18.62315l-92.736101 192.523805c-3.672646 7.687076-10.955516 13.022595-19.370163 14.265912l-213.398228 31.757285c-12.30935 1.831718-22.75833 10.324136-26.672476 21.664416-3.855818 11.210319-0.954745 23.472598 7.596002 31.997762l156.390863 156.135036c5.89015 5.885034 8.579399 14.247492 7.210215 22.445198l-36.263925 216.545918c-2.048659 12.039197 3.128247 23.944342 13.504572 31.077809 10.31902 7.085372 24.715915 7.942903 36.089963 1.831718l185.978738-100.086509C498.540454 777.652336 502.70531 776.645402 506.913145 776.645402L506.913145 776.645402zM506.913145 776.645402" p-id="3613" fill="#cdcdcd"></path></svg>