<?xml version="1.0" standalone="no"?><!DOCTYPE svg PUBLIC "-//W3C//DTD SVG 1.1//EN" "http://www.w3.org/Graphics/SVG/1.1/DTD/svg11.dtd"><svg t="1626064081777" class="icon" viewBox="0 0 1024 1024" version="1.1" xmlns="http://www.w3.org/2000/svg" p-id="4865" xmlns:xlink="http://www.w3.org/1999/xlink" width="200" height="200"><defs><style type="text/css"></style></defs><path d="M620.032 936.704c-2.2528-11.1616-12.2368-17.2544-30.3616-12.4928 14.4896-61.696 21.504-96.256 51.7632-122.4704 43.776-37.9392 5.2224-80.128-28.1088-75.1616-26.2144 3.9424-9.6256-32.512-33.0752-34.5088-23.3984-1.9968-54.016-48.5888-87.7568-64.6144-17.8688-8.4992-35.4304-31.232-62.976-32.256-24.4736-0.9728-60.16 20.6848-60.16 3.9936 0-53.6064-5.4272-91.904-6.5536-107.2128-0.8704-12.288-8.0384-4.096 25.0368-3.328 17.92 0.512 9.216-36.096 26.9824-37.5296 17.4592-1.3824 59.0848 16.384 69.7344 9.2672 9.8304-6.5536 72.448 164.352 72.448 28.2624 0-16.128-8.3968-44.2368 0-59.4944 33.024-60.416 64-109.6704 61.2352-116.8384-1.5872-4.096-33.8432-7.424-59.648 1.2288-8.704 2.9184 2.7648 16.5376-9.728 19.456-46.8992 10.8032-88.2688-12.6464-73.7792-34.6624 14.848-22.5792 68.608-9.8816 73.3696-55.1936 2.7136-25.9584 4.9664-56.0128 6.4512-78.336 63.0784 9.8304 56.1152-81.92-37.632-91.6992A438.9888 438.9888 0 0 1 926.72 367.872a17.92 17.92 0 0 0-10.496-4.7616c-28.3648-70.8096-97.1776-19.5584-73.8304 42.9056-125.0816 96.1536-93.0816 163.2256-51.968 201.6256 21.6064 20.1728 42.24 50.5344 55.6544 72.3456-14.592 42.5984 53.8624 25.5488 87.6032-46.7456a439.5008 439.5008 0 0 1-313.7024 303.4624M73.216 511.5904c0-31.0272 3.2256-61.2864 9.3184-90.4704 18.944 20.2752 63.6416 19.8144 74.5472-10.496 19.456 11.6224 45.6704 13.7216 45.6704 36.9664 0 76.6464 2.7136 158.7712 72.3456 160.0512 1.9456 0 38.8608 13.9776 56.3712 59.4944 6.0928 15.7184 30.1056 0 56.4224 0 13.1072 0 0 22.1184 0 69.9392 0 47.7184 102.7584 121.088 102.7584 121.088-0.512 31.5904 0.8192 57.088 3.4304 77.4656a171.8784 171.8784 0 0 0-58.112 7.8848C229.888 907.52 73.216 727.8592 73.216 511.5904m877.6192 7.2192a501.6576 501.6576 0 0 0-9.984-74.752c0.512-8.704 0.6144-16.896 0.3584-24.576 6.3488 29.696 9.728 60.5184 9.728 92.1088l-0.1024 7.2192M1024 511.5904C1024 229.0176 794.7776 0 512 0S0 229.0176 0 511.5904c0 261.0176 195.584 476.3136 448.3072 507.648a256.1024 256.1024 0 0 0 69.0688 3.8912C797.696 1020.2624 1024 792.32 1024 511.5904" p-id="4866" fill="#dbdbdb"></path></svg>