<?xml version="1.0" standalone="no"?><!DOCTYPE svg PUBLIC "-//W3C//DTD SVG 1.1//EN" "http://www.w3.org/Graphics/SVG/1.1/DTD/svg11.dtd"><svg t="1627181539550" class="icon" viewBox="0 0 1024 1024" version="1.1" xmlns="http://www.w3.org/2000/svg" p-id="1981" xmlns:xlink="http://www.w3.org/1999/xlink" width="200" height="200"><defs><style type="text/css">@font-face { font-family: feedback-iconfont; src: url("//at.alicdn.com/t/font_1031158_1uhr8ri0pk5.eot?#iefix") format("embedded-opentype"), url("//at.alicdn.com/t/font_1031158_1uhr8ri0pk5.woff2") format("woff2"), url("//at.alicdn.com/t/font_1031158_1uhr8ri0pk5.woff") format("woff"), url("//at.alicdn.com/t/font_1031158_1uhr8ri0pk5.ttf") format("truetype"), url("//at.alicdn.com/t/font_1031158_1uhr8ri0pk5.svg#iconfont") format("svg"); }
</style></defs><path d="M510.07488 19.84512c-0.88064 0.16384-1.76128 0.4096-2.56 0.63488A20.52096 20.52096 0 0 0 491.52 40.96v81.92c-0.08192 7.3728 3.76832 14.2336 10.15808 18.00192 6.41024 3.6864 14.2336 3.6864 20.64384 0 6.38976-3.76832 10.24-10.6496 10.15808-18.00192V40.96A20.48 20.48 0 0 0 510.07488 19.84512zM205.43488 145.92a18.0224 18.0224 0 0 0-1.92512 0.63488c-7.35232 1.51552-13.27104 7.04512-15.42144 14.25408a20.35712 20.35712 0 0 0 5.20192 20.31616l58.22464 58.24512c4.95616 6.06208 12.9024 8.86784 20.56192 7.10656 7.59808-1.76128 13.59872-7.76192 15.36-15.36a20.56192 20.56192 0 0 0-7.12704-20.56192l-58.22464-58.24512a20.48 20.48 0 0 0-14.72512-6.38976h-1.92512z m608.64512 0c-0.88064 0.16384-1.76128 0.4096-2.56 0.63488a20.1728 20.1728 0 0 0-9.60512 5.77536l-58.22464 58.22464a20.56192 20.56192 0 0 0-7.12704 20.56192c1.76128 7.59808 7.76192 13.59872 15.36 15.36 7.68 1.76128 15.60576-1.024 20.56192-7.12704l58.22464-58.22464a20.48 20.48 0 0 0-16.65024-35.20512zM512 184.32c-158.08512 0-286.72 128.63488-286.72 286.72 0 100.1472 44.87168 167.44448 87.04 216.96512 21.11488 24.71936 41.51296 45.6704 55.68512 64C382.1568 770.31424 389.12 784.97792 389.12 798.72v72.31488a20.6848 20.6848 0 0 0 0 17.92V901.12c0 33.6896 27.7504 61.44 61.44 61.44h15.99488c11.28448 12.4928 27.36128 20.48 45.44512 20.48 18.08384 0 34.16064-7.9872 45.44512-20.48H573.44c33.6896 0 61.44-27.7504 61.44-61.44v-16.65024a20.80768 20.80768 0 0 0 0-8.31488V798.72c0-13.76256 6.9632-28.5696 21.11488-46.71488 14.17216-18.16576 34.57024-38.7072 55.68512-63.36512C753.84832 639.36512 798.72 572.08832 798.72 471.04c0-158.08512-128.63488-286.72-286.72-286.72z m0 40.96c135.9872 0 245.76 109.7728 245.76 245.76 0 89.2928-37.04832 144.95744-76.8 191.36512-19.84512 23.20384-40.40704 43.4176-56.95488 64.63488a138.38336 138.38336 0 0 0-25.6 51.2H425.5744c-4.7104-18.55488-13.43488-35.51232-25.6-51.2-16.54784-21.36064-37.10976-41.92256-56.95488-65.29024-39.75168-46.63296-76.8-102.4-76.8-190.70976 0-135.9872 109.7728-245.76 245.76-245.76zM76.16512 450.56c-11.28448 1.59744-19.21024 12.0832-17.6128 23.3472 1.61792 11.28448 12.0832 19.21024 23.36768 17.6128h81.92c7.3728 0.08192 14.2336-3.76832 18.00192-10.15808a20.6848 20.6848 0 0 0 0-20.64384c-3.76832-6.38976-10.6496-10.24-18.00192-10.15808H76.16512z m778.24 0c-11.28448 1.59744-19.21024 12.0832-17.6128 23.3472 1.59744 11.28448 12.0832 19.21024 23.36768 17.6128h81.92c7.3728 0.08192 14.2336-3.76832 18.00192-10.15808a20.6848 20.6848 0 0 0 0-20.64384c-3.76832-6.38976-10.6496-10.24-18.00192-10.15808H854.40512zM263.68 696.32a20.5824 20.5824 0 0 0-12.16512 6.41024l-58.24512 58.22464a20.56192 20.56192 0 0 0-7.10656 20.56192c1.76128 7.59808 7.76192 13.59872 15.36 15.36 7.68 1.76128 15.60576-1.024 20.56192-7.10656l58.24512-58.24512A20.52096 20.52096 0 0 0 265.60512 696.32h-1.92512z m490.25024 0a20.35712 20.35712 0 0 0-16.01536 14.39744c-2.1504 7.51616 0.08192 15.52384 5.77536 20.80768l58.22464 58.22464c4.95616 6.08256 12.9024 8.88832 20.56192 7.12704 7.59808-1.76128 13.59872-7.76192 15.36-15.36a20.56192 20.56192 0 0 0-7.10656-20.56192l-58.24512-58.22464A20.48 20.48 0 0 0 757.76 696.32h-3.82976zM430.08 819.2h163.84v40.96h-106.22976c-11.28448 1.024-19.61984 11.12064-18.57536 22.40512 1.04448 11.264 11.12064 19.59936 22.40512 18.55488h102.4c0 11.59168-8.88832 20.48-20.48 20.48h-122.88c-11.59168 0-20.48-8.88832-20.48-20.48 7.3728 0.08192 14.2336-3.76832 18.00192-10.15808a20.6848 20.6848 0 0 0 0-20.64384c-3.76832-6.38976-10.6496-10.24-18.00192-10.15808z" p-id="1982" fill="#ffffff"></path></svg>
