<?xml version="1.0" standalone="no"?><!DOCTYPE svg PUBLIC "-//W3C//DTD SVG 1.1//EN" "http://www.w3.org/Graphics/SVG/1.1/DTD/svg11.dtd"><svg t="1621166704395" class="icon" viewBox="0 0 1024 1024" version="1.1" xmlns="http://www.w3.org/2000/svg" p-id="3007" xmlns:xlink="http://www.w3.org/1999/xlink" width="200" height="200"><defs><style type="text/css"></style></defs><path d="M294.592 380.992h199.808c20.48 0 35.84-15.872 35.84-36.992 0-21.12-15.36-37.056-35.84-37.056H294.592c-20.48 0-35.84 15.872-35.84 37.056 0 21.12 15.36 36.992 35.84 36.992z m430.336 126.976H294.592c-20.48 0-35.84 15.872-35.84 36.992 0 21.12 15.36 37.056 35.84 37.056h430.336c20.48 0 35.84-15.872 35.84-37.056 0-21.12-15.36-36.992-35.84-36.992z m0 200.96H294.592c-20.48 0-35.84 15.872-35.84 37.056 0 21.12 15.36 36.992 35.84 36.992h430.336c20.48 0 35.84-15.872 35.84-36.992 0-21.12-15.36-37.056-35.84-37.056z" p-id="3008" fill="#dbdbdb"></path><path d="M955.456 296.384L689.088 0.192H166.528C110.208 0.192 64 47.808 64 105.984V915.2c0 58.24 46.08 105.792 102.4 105.792h686.528c56.32 0 102.4-47.552 102.4-105.792V296.384zM689.088 105.984l174.144 190.4h-107.52c-35.904 0-66.624-31.744-66.624-68.736V105.984z m199.744 803.968c0 15.872-15.36 31.744-30.72 31.744H166.528c-15.36 0-30.72-15.872-30.72-31.744V105.984c0-15.872 15.36-31.744 30.72-31.744h455.936v158.72c0 79.296 61.44 142.72 138.304 142.72h128.064v534.272z" p-id="3009" fill="#dbdbdb"></path></svg>