<?xml version="1.0" standalone="no"?><!DOCTYPE svg PUBLIC "-//W3C//DTD SVG 1.1//EN" "http://www.w3.org/Graphics/SVG/1.1/DTD/svg11.dtd"><svg t="1622940027592" class="icon" viewBox="0 0 1024 1024" version="1.1" xmlns="http://www.w3.org/2000/svg" p-id="3529" xmlns:xlink="http://www.w3.org/1999/xlink" width="200" height="200"><defs><style type="text/css"></style></defs><path d="M536.876 281.792a124.8 124.8 0 1 1 124.8-124.8 125.088 125.088 0 0 1-124.8 124.8zM271.076 380.936a114.072 114.072 0 1 1 114.072-114.072 114.24 114.24 0 0 1-114.072 114.072zM158.3 638.96a100.656 100.656 0 1 1 100.656-100.56A100.8 100.8 0 0 1 158.3 638.96z m112.8 255.432a85.296 85.296 0 1 1 85.296-85.296A85.464 85.464 0 0 1 271.1 894.392zM536.876 992a74.4 74.4 0 1 1 74.4-74.4 74.4 74.4 0 0 1-74.4 74.4z m269.712-125.76a60.168 60.168 0 1 1 60.168-60.168 60.336 60.336 0 0 1-60.168 60.168z m110.4-278.16a49.344 49.344 0 1 1 49.368-49.344 49.32 49.32 0 0 1-49.344 49.344z m-148.8-317.544a38.4 38.4 0 1 1 11.256 27.048 37.992 37.992 0 0 1-11.256-27.048z" p-id="3530" fill="#dbdbdb"></path></svg>