<?xml version="1.0" standalone="no"?><!DOCTYPE svg PUBLIC "-//W3C//DTD SVG 1.1//EN" "http://www.w3.org/Graphics/SVG/1.1/DTD/svg11.dtd"><svg t="1623502697653" class="icon" viewBox="0 0 1037 1024" version="1.1" xmlns="http://www.w3.org/2000/svg" p-id="4143" xmlns:xlink="http://www.w3.org/1999/xlink" width="202.5390625" height="200"><defs><style type="text/css"></style></defs><path d="M505.518987 998.4c-271.716456 0-492.881013-221.164557-492.881012-492.881013S233.802532 12.637975 505.518987 12.637975s492.881013 221.164557 492.881013 492.881012-221.164557 492.881013-492.881013 492.881013z m0-101.103797c221.164557 0 391.777215-176.931646 391.777216-391.777216S720.364557 113.741772 505.518987 113.741772 113.741772 290.673418 113.741772 505.518987 284.35443 897.296203 505.518987 897.296203z" fill="#cdcdcd" opacity=".1" p-id="4144"></path><path d="M979.443038 391.777215c6.318987 25.275949-12.637975 50.551899-37.913924 56.870886-25.275949 6.318987-50.551899-12.637975-56.870886-37.913924-31.594937-139.017722-139.017722-252.759494-278.035443-290.673418-25.275949-6.318987-37.913924-31.594937-31.594937-56.870886 6.318987-25.275949 31.594937-37.913924 56.870886-31.594936 176.931646 50.551899 309.63038 189.56962 347.544304 360.182278z" fill="#cdcdcd" p-id="4145"></path></svg>