<?xml version="1.0" standalone="no"?><!DOCTYPE svg PUBLIC "-//W3C//DTD SVG 1.1//EN" "http://www.w3.org/Graphics/SVG/1.1/DTD/svg11.dtd"><svg t="1621695037483" class="icon" viewBox="0 0 1024 1024" version="1.1" xmlns="http://www.w3.org/2000/svg" p-id="3778" xmlns:xlink="http://www.w3.org/1999/xlink" width="200" height="200"><defs><style type="text/css"></style></defs><path d="M350.906381 343.636283h102.413547v336.727434h-102.413547zM570.725228 343.636283h102.413547v336.727434h-102.413547z" fill="#dbdbdb" p-id="3779"></path><path d="M511.819376 31.518808c-265.245667 0-480.300569 214.96459-480.300568 480.142523 0 265.177934 215.054901 480.142523 480.300568 480.142523 265.290823 0 480.323147-214.96459 480.323147-480.142523 0-265.177934-215.054901-480.142523-480.323147-480.142523z m0 903.478943c-233.884905 0-423.494466-189.541827-423.494465-423.358998 0-233.817172 189.60956-423.358998 423.494465-423.358998 233.907483 0 423.517044 189.541827 423.517044 423.358998 0 233.83975-189.60956 423.358998-423.517044 423.358998z" fill="#dbdbdb" p-id="3780"></path></svg>