<?xml version="1.0" standalone="no"?><!DOCTYPE svg PUBLIC "-//W3C//DTD SVG 1.1//EN" "http://www.w3.org/Graphics/SVG/1.1/DTD/svg11.dtd"><svg t="1621693853849" class="icon" viewBox="0 0 1024 1024" version="1.1" xmlns="http://www.w3.org/2000/svg" p-id="2357" xmlns:xlink="http://www.w3.org/1999/xlink" width="200" height="200"><defs><style type="text/css"></style></defs><path d="M512 928c-229.76 0-416-186.24-416-416S282.24 96 512 96s416 186.24 416 416-186.24 416-416 416z m-90.282667-274.474667c11.52 18.090667 36.352 23.978667 55.552 13.184l207.018667-116.565333a39.509333 39.509333 0 0 0 13.141333-11.946667c12.202667-17.621333 6.912-41.216-11.818666-52.736l-207.018667-127.146666a42.325333 42.325333 0 0 0-22.101333-6.229334c-22.357333 0-40.490667 17.066667-40.490667 38.144v243.754667c0 6.869333 1.962667 13.653333 5.717333 19.541333z" p-id="2358" fill="#dbdbdb"></path></svg>