<?xml version="1.0" standalone="no"?><!DOCTYPE svg PUBLIC "-//W3C//DTD SVG 1.1//EN" "http://www.w3.org/Graphics/SVG/1.1/DTD/svg11.dtd"><svg t="1621167358977" class="icon" viewBox="0 0 1024 1024" version="1.1" xmlns="http://www.w3.org/2000/svg" p-id="5762" xmlns:xlink="http://www.w3.org/1999/xlink" width="200" height="200"><defs><style type="text/css"></style></defs><path d="M990.72 399.36c-17.92-78.336-56.32-153.088-110.08-213.504-53.76-60.928-121.344-107.52-197.632-136.704-56.832-22.016-116.224-33.28-175.104-33.28-97.792 0-194.56 29.184-275.968 83.968-20.48 13.824-39.936 29.184-57.856 45.568-9.728 8.192-26.112 26.112-26.112 26.112l52.224 51.2s16.384-17.92 26.112-26.112C299.52 131.584 393.216 93.184 491.52 90.112c83.968-2.56 168.448 19.456 238.592 63.488 69.12 43.008 124.416 104.96 158.72 178.176 35.84 75.776 48.128 161.28 35.84 245.76-12.288 81.408-48.128 157.184-103.424 218.112-53.76 60.928-125.44 104.96-204.288 125.44-82.944 22.016-171.008 19.456-251.392-8.192-77.312-27.648-147.968-78.848-197.632-143.36-43.008-56.832-70.656-122.88-81.408-193.536 17.92 9.728 101.888 50.176 101.888 50.176l33.28-64-205.824-97.28s-4.608 19.456-6.144 39.424c-2.56 49.152 4.096 124.416 36.352 196.096 32.768 74.24 81.408 142.336 143.36 193.536 61.952 52.224 138.24 88.576 218.112 104.96 82.944 16.384 169.984 12.288 249.856-13.824 77.312-25.088 147.968-69.12 204.288-126.976 56.832-57.856 97.792-129.536 121.344-208.384 24.576-81.92 27.136-168.448 7.68-250.368z m0 0" p-id="5763" fill="#dbdbdb"></path><path d="M454.144 226.304v317.44s0 1.536 1.536 1.536c0 0 0 1.536 1.536 1.536 0 0 0 1.536 1.536 1.536l1.536 1.536 1.536 1.536 1.536 1.536 2.56 2.56 142.336 142.336 55.296-56.832L532.48 509.952V226.304H454.144zM507.392 168.96" p-id="5764" fill="#dbdbdb"></path></svg>