<?xml version="1.0" standalone="no"?><!DOCTYPE svg PUBLIC "-//W3C//DTD SVG 1.1//EN" "http://www.w3.org/Graphics/SVG/1.1/DTD/svg11.dtd"><svg t="1621129165383" class="icon" viewBox="0 0 1024 1024" version="1.1" xmlns="http://www.w3.org/2000/svg" p-id="1249" xmlns:xlink="http://www.w3.org/1999/xlink" width="200" height="200"><defs><style type="text/css"></style></defs><path d="M653.963636 646.981818H370.036364c-86.109091 0-158.254545-65.163636-158.254546-146.618182v-225.745454c0-81.454545 69.818182-146.618182 158.254546-146.618182h286.254545c86.109091 0 155.927273 65.163636 155.927273 146.618182v225.745454c0 81.454545-72.145455 146.618182-158.254546 146.618182zM370.036364 197.818182c-48.872727 0-88.436364 34.909091-88.436364 79.127273v225.745454c0 44.218182 39.563636 79.127273 88.436364 79.127273h286.254545c48.872727 0 88.436364-34.909091 88.436364-79.127273v-225.745454c0-44.218182-39.563636-79.127273-88.436364-79.127273H370.036364z" fill="#dbdbdb" p-id="1250"></path><path d="M512 155.927273c-16.290909 0-30.254545-13.963636-30.254545-27.927273V72.145455c0-13.963636 13.963636-27.927273 30.254545-27.927273 16.290909 0 30.254545 13.963636 30.254545 27.927273v55.854545c0 16.290909-13.963636 27.927273-30.254545 27.927273z" fill="#dbdbdb" p-id="1251"></path><path d="M339.781818 379.345455a41.890909 37.236364 0 1 0 83.781818 0 41.890909 37.236364 0 1 0-83.781818 0Z" fill="#dbdbdb" p-id="1252"></path><path d="M602.763636 379.345455a41.890909 37.236364 0 1 0 83.781819 0 41.890909 37.236364 0 1 0-83.781819 0Z" fill="#dbdbdb" p-id="1253"></path><path d="M155.927273 444.509091c-16.290909 0-30.254545-13.963636-30.254546-27.927273v-111.709091c0-13.963636 13.963636-27.927273 30.254546-27.927272 16.290909 0 30.254545 13.963636 30.254545 27.927272v111.709091c0 16.290909-13.963636 27.927273-30.254545 27.927273zM53.527273 416.581818c-16.290909 0-30.254545-13.963636-30.254546-27.927273v-55.854545c0-13.963636 13.963636-27.927273 30.254546-27.927273 16.290909 0 30.254545 13.963636 30.254545 27.927273v55.854545c0 16.290909-13.963636 27.927273-30.254545 27.927273zM868.072727 276.945455c-16.290909 0-30.254545 13.963636-30.254545 27.927272v111.709091c0 13.963636 13.963636 27.927273 30.254545 27.927273 16.290909 0 30.254545-13.963636 30.254546-27.927273v-111.709091c0-16.290909-13.963636-27.927273-30.254546-27.927272zM970.472727 304.872727c-16.290909 0-30.254545 13.963636-30.254545 27.927273v55.854545c0 13.963636 13.963636 27.927273 30.254545 27.927273 16.290909 0 30.254545-13.963636 30.254546-27.927273v-55.854545c0-16.290909-13.963636-27.927273-30.254546-27.927273z" fill="#dbdbdb" p-id="1254"></path><path d="M756.363636 975.127273H225.745455c-76.8 0-137.309091-55.854545-137.309091-128s60.509091-128 137.309091-128h162.90909c16.290909 0 25.6-9.309091 25.6-23.272728V651.636364c0-39.563636 34.909091-72.145455 76.8-72.145455h41.89091c41.890909 0 76.8 32.581818 76.8 72.145455v44.218181c0 13.963636 11.636364 23.272727 25.6 23.272728h121.018181c76.8 0 137.309091 55.854545 137.309091 128s-60.509091 128-137.309091 128zM225.745455 786.618182c-37.236364 0-67.490909 25.6-67.49091 60.509091S188.509091 907.636364 225.745455 907.636364h530.618181c37.236364 0 67.490909-25.6 67.490909-60.509091s-30.254545-60.509091-67.490909-60.509091h-121.018181c-53.527273 0-95.418182-39.563636-95.418182-90.763637V651.636364c0-2.327273-2.327273-4.654545-6.981818-4.654546h-41.89091c-4.654545 0-6.981818 2.327273-6.981818 4.654546v44.218181c0 51.2-41.890909 90.763636-95.418182 90.763637h-162.90909z" fill="#dbdbdb" p-id="1255"></path></svg>