<?xml version="1.0" standalone="no"?><!DOCTYPE svg PUBLIC "-//W3C//DTD SVG 1.1//EN" "http://www.w3.org/Graphics/SVG/1.1/DTD/svg11.dtd"><svg t="1624064429388" class="icon" viewBox="0 0 1024 1024" version="1.1" xmlns="http://www.w3.org/2000/svg" p-id="2242" xmlns:xlink="http://www.w3.org/1999/xlink" width="200" height="200"><defs><style type="text/css"></style></defs><path d="M128 192m64 0l640 0q64 0 64 64l0 0q0 64-64 64l-640 0q-64 0-64-64l0 0q0-64 64-64Z" p-id="2243" fill="#cdcdcd"></path><path d="M128 448m64 0l640 0q64 0 64 64l0 0q0 64-64 64l-640 0q-64 0-64-64l0 0q0-64 64-64Z" p-id="2244" fill="#cdcdcd"></path><path d="M128 704m64 0l448 0q64 0 64 64l0 0q0 64-64 64l-448 0q-64 0-64-64l0 0q0-64 64-64Z" p-id="2245" fill="#cdcdcd"></path></svg>