<?xml version="1.0" standalone="no"?><!DOCTYPE svg PUBLIC "-//W3C//DTD SVG 1.1//EN" "http://www.w3.org/Graphics/SVG/1.1/DTD/svg11.dtd"><svg t="1627192721802" class="icon" viewBox="0 0 1024 1024" version="1.1" xmlns="http://www.w3.org/2000/svg" p-id="2845" xmlns:xlink="http://www.w3.org/1999/xlink" width="200" height="200"><defs><style type="text/css">@font-face { font-family: feedback-iconfont; src: url("//at.alicdn.com/t/font_1031158_1uhr8ri0pk5.eot?#iefix") format("embedded-opentype"), url("//at.alicdn.com/t/font_1031158_1uhr8ri0pk5.woff2") format("woff2"), url("//at.alicdn.com/t/font_1031158_1uhr8ri0pk5.woff") format("woff"), url("//at.alicdn.com/t/font_1031158_1uhr8ri0pk5.ttf") format("truetype"), url("//at.alicdn.com/t/font_1031158_1uhr8ri0pk5.svg#iconfont") format("svg"); }
</style></defs><path d="M535.156475 87.96875c-9.65625 0-19.5 3.1875-28.03125 10.40625L267.218975 310.4375l-168.65625 0.28125C62.000225 310.71875 32.468975 340.625 32.375225 377.46875L32.000225 668C31.906475 705.03125 61.625225 735.125 98.281475 735.125h171.1875l236.625 190.59375c8.53125 7.125 18.375 10.40625 27.9375 10.40625 22.78125 0 44.4375-18.09375 44.4375-44.71875l1.125-758.625C579.500225 106.0625 557.937725 87.96875 535.156475 87.96875z m-22.125 758.0625L309.875225 682.4375c-11.53125-9.28125-25.78125-14.34375-40.5-14.34375H97.437725l1.21875-290.53125 168.65625-0.28125c15.65625 0 30.84375-5.8125 42.75-16.3125l204-180.28125-1.03125 665.34375z m0 0M707.093975 291.875c-15.09375-10.21875-35.34375-6-45.375 9.375-10.03125 15.375-5.90625 36.1875 9.1875 46.40625 51.09375 34.6875 81.5625 92.25 81.5625 153.9375 0 59.34375-28.59375 115.59375-76.59375 150.5625-14.71875 10.6875-18.1875 31.59375-7.6875 46.6875 6.375 9.1875 16.5 14.0625 26.71875 14.0625 6.5625 0 13.21875-1.96875 18.9375-6.1875 65.15625-47.4375 104.0625-124.125 104.0625-205.125 0-84.1875-41.4375-162.5625-110.8125-209.71875z m0 0" fill="#707070" p-id="2846"></path><path d="M846.031475 169.90625c-13.5-12.28125-34.125-11.15625-46.21875 2.71875-12 13.78125-10.875 34.96875 2.625 47.25 78.84375 72 124.125 174.75 124.125 281.8125 0 104.4375-41.25 201.84375-116.15625 274.3125-13.125 12.65625-13.6875 33.84375-1.3125 47.34375 6.46875 6.9375 15.09375 10.5 23.8125 10.5 8.0625 0 16.125-3 22.5-9.1875 88.125-85.21875 136.59375-199.96875 136.59375-322.96875 0-126.1875-53.15625-247.03125-145.96875-331.78125z m0 0" fill="#707070" p-id="2847"></path></svg>
